<?xml version="1.0" encoding="iso-8859-1"?>
<svg height="800px" width="800px" version="1.1" id="Capa_1" xmlns="http://www.w3.org/2000/svg" xmlns:xlink="http://www.w3.org/1999/xlink" 
	 viewBox="0 0 490.976 490.976" xml:space="preserve">
<g>
	<path style="fill:#010002;" d="M298.749,189.397l-52.722-9.714c-6.722-1.236-13.168,3.203-14.404,9.925l-9.714,52.722
		c-1.236,6.722,2.317,9.023,7.95,5.145l15.062-10.372l21.053,30.563c3.877,5.625,11.583,7.047,17.208,3.17l20.378-14.038
		c5.625-3.877,7.047-11.583,3.17-17.208l-21.053-30.563l15.062-10.372C306.358,194.778,305.472,190.632,298.749,189.397z"/>
	<path style="fill:#010002;" d="M260.513,313.959c4.942,7.178,14.778,8.99,21.955,4.04l68.711-47.341
		c7.178-4.942,8.99-14.778,4.04-21.955c-4.942-7.178-14.778-8.99-21.955-4.04l-68.711,47.341
		C257.383,296.946,255.57,306.782,260.513,313.959z"/>
	<path style="fill:#010002;" d="M490.624,150.827c-0.098-0.374-0.203-0.74-0.333-1.105c-0.13-0.35-0.268-0.691-0.431-1.024
		c-0.179-0.374-0.374-0.74-0.593-1.097c-0.098-0.163-0.163-0.333-0.268-0.496c-0.098-0.146-0.228-0.252-0.325-0.39
		c-0.252-0.341-0.52-0.658-0.805-0.959c-0.252-0.276-0.504-0.536-0.78-0.788c-0.293-0.26-0.593-0.496-0.902-0.723
		c-0.309-0.228-0.618-0.447-0.943-0.642c-0.325-0.195-0.667-0.366-1.008-0.528c-0.35-0.171-0.707-0.325-1.081-0.455
		c-0.341-0.122-0.699-0.219-1.049-0.309c-0.406-0.106-0.821-0.195-1.244-0.252c-0.171-0.024-0.325-0.081-0.488-0.098
		c-0.187-0.016-0.358,0.008-0.545,0c-0.447-0.024-0.878-0.024-1.317,0c-0.35,0.016-0.691,0.049-1.032,0.098
		c-0.415,0.057-0.813,0.146-1.211,0.244c-0.358,0.089-0.707,0.195-1.057,0.317c-0.366,0.13-0.723,0.285-1.073,0.447
		c-0.358,0.171-0.715,0.358-1.057,0.569c-0.171,0.106-0.35,0.163-0.52,0.276l-44.528,30.059L319.802,16.868l-6.714-9.746
		l-9.746,6.714L154.126,116.638l-22.248-32.295c-0.715-1.032-1.593-1.87-2.536-2.601c-0.138-0.106-0.268-0.228-0.415-0.325
		c-1.122-0.788-2.398-1.382-3.796-1.756c-0.098-0.024-0.171-0.106-0.276-0.13c-0.065-0.016-0.122,0.008-0.187-0.008
		c-1.455-0.317-2.902-0.35-4.3-0.138c-0.106,0.016-0.219,0.016-0.325,0.033c-1.39,0.252-2.699,0.772-3.894,1.471
		c-0.122,0.073-0.244,0.122-0.358,0.195c-0.122,0.081-0.26,0.13-0.382,0.211l-64.996,44.788c-5.381,3.707-6.739,11.087-3.032,16.468
		c3.707,5.381,11.087,6.739,16.468,3.032l39.659-27.32l-22.524,95.015L5.121,265.545c-5.381,3.707-6.739,11.079-3.032,16.46
		s11.087,6.739,16.468,3.032L88.431,236.9l94.674,137.43c3.39-3.52,7.169-6.747,11.339-9.624c2.479-1.707,5.04-3.186,7.641-4.552
		l-97.892-142.096l23.305-98.331l8.836,12.835l-18.005,66.76c-0.577,2.122-0.488,4.259,0.065,6.235l-0.569,0.39l101.762,147.704
		c4.341-1.008,8.722-1.601,13.128-1.813c4.999-0.244,9.982,0.008,14.908,0.764l-96.86-140.584l142.705-98.315l98.315,142.705
		L251.23,353.236c4.91,1,9.706,2.52,14.339,4.495c4.072,1.74,7.999,3.829,11.73,6.292l143.616-98.941l3.788-2.609l-0.536-0.78
		c0.951-1.488,1.609-3.195,1.813-5.072l6.218-56.892l32.669-22.045l-7.373,72.905L284.663,369.64
		c4.698,4.048,9.015,8.681,12.689,14.022c0.943,1.374,1.756,2.796,2.593,4.202l179.999-124.01l11.014-108.947
		c0.016-0.195-0.008-0.374,0-0.569c0.024-0.431,0.024-0.862,0-1.284c-0.016-0.358-0.057-0.723-0.106-1.081
		C490.795,151.591,490.722,151.209,490.624,150.827z M285.744,90.269l-139.373,96.015l3.56-13.185L288.003,77.97L285.744,90.269z
		 M291.954,56.543l-135.82,93.568l2.024-7.503l135.081-93.064L291.954,56.543z M404.689,233.421l-95.665-138.86l1.959-10.648
		l32.888,47.739l4.893-16.298l-34.384-49.909l2.138-11.599l93.032,135.04L404.689,233.421z"/>
	<path style="fill:#010002;" d="M269.446,473.572c25.101-17.298,32.36-50.763,17.501-76.75c-0.813-1.422-1.65-2.829-2.593-4.202
		c-3.723-5.406-8.234-9.941-13.225-13.656c-2.585-1.926-5.284-3.65-8.112-5.097c-4.365-2.235-8.982-3.845-13.721-4.926
		c-1.813-0.415-3.633-0.732-5.471-0.967c-4.771-0.618-9.616-0.667-14.436-0.089c-6.235,0.756-12.388,2.56-18.257,5.405
		c-2.642,1.276-5.243,2.707-7.738,4.422c-4.219,2.91-7.877,6.308-11.071,10.023c-16.842,19.565-19.175,48.682-3.845,70.938
		C206.726,485.139,242.971,491.812,269.446,473.572z M213.107,417.883c1.634-4.918,4.731-9.389,9.323-12.551
		c2.585-1.78,5.406-2.943,8.283-3.625c2.691-0.642,5.43-0.764,8.137-0.496c6.966,0.699,13.599,4.227,17.883,10.437
		c0.959,1.39,1.748,2.845,2.39,4.341c4.503,10.567,1.122,23.191-8.706,29.962c-11.217,7.73-26.572,4.902-34.303-6.316
		C211.546,433.01,210.749,424.963,213.107,417.883z"/>
</g>
</svg>