<svg width="31" height="23" viewBox="0 0 31 23" fill="none" xmlns="http://www.w3.org/2000/svg">
<path d="M21.7 19.9333V23H0V19.9333C0 19.9333 0 13.8 10.85 13.8C21.7 13.8 21.7 19.9333 21.7 19.9333ZM16.275 5.36673C16.275 4.30531 15.9568 3.26772 15.3607 2.38518C14.7646 1.50264 13.9173 0.814781 12.9261 0.408593C11.9348 0.00240374 10.844 -0.103874 9.79163 0.1032C8.73929 0.310273 7.77265 0.821397 7.01395 1.57194C6.25525 2.32247 5.73856 3.27872 5.52924 4.31975C5.31992 5.36078 5.42735 6.43983 5.83795 7.42045C6.24856 8.40108 6.94389 9.23924 7.83603 9.82893C8.72817 10.4186 9.77704 10.7334 10.85 10.7334C12.2888 10.7334 13.6687 10.168 14.6861 9.16152C15.7034 8.15508 16.275 6.79005 16.275 5.36673ZM21.607 13.8C22.5599 14.5295 23.3395 15.4567 23.8912 16.5163C24.4428 17.576 24.7531 18.7423 24.8 19.9333V23H31V19.9333C31 19.9333 31 14.3674 21.607 13.8ZM20.15 8.06209e-05C19.0831 -0.00579619 18.0397 0.309745 17.1585 0.904744C18.1 2.20614 18.6063 3.76637 18.6063 5.36673C18.6063 6.96708 18.1 8.52732 17.1585 9.82871C18.0397 10.4237 19.0831 10.7393 20.15 10.7334C21.5888 10.7334 22.9687 10.168 23.9861 9.16152C25.0034 8.15508 25.575 6.79005 25.575 5.36673C25.575 3.94341 25.0034 2.57838 23.9861 1.57194C22.9687 0.565494 21.5888 8.06209e-05 20.15 8.06209e-05Z" fill="black"/>
</svg>
