<svg width="23" height="23" viewBox="0 0 23 23" fill="none" xmlns="http://www.w3.org/2000/svg">
<path d="M11.5 0C5.1589 0 0 5.1589 0 11.5V16.2645C0 17.442 1.03155 18.4 2.3 18.4H3.45C3.755 18.4 4.04751 18.2788 4.26317 18.0632C4.47884 17.8475 4.6 17.555 4.6 17.25V11.3356C4.6 11.0306 4.47884 10.738 4.26317 10.5224C4.04751 10.3067 3.755 10.1856 3.45 10.1856H2.4058C3.0452 5.73505 6.8747 2.3 11.5 2.3C16.1253 2.3 19.9548 5.73505 20.5942 10.1856H19.55C19.245 10.1856 18.9525 10.3067 18.7368 10.5224C18.5212 10.738 18.4 11.0306 18.4 11.3356V18.4C18.4 19.6685 17.3685 20.7 16.1 20.7H13.8V19.55H9.2V23H16.1C18.6369 23 20.7 20.9369 20.7 18.4C21.9685 18.4 23 17.442 23 16.2645V11.5C23 5.1589 17.8411 0 11.5 0Z" fill="black"/>
</svg>
