<svg width="20" height="23" viewBox="0 0 20 23" fill="none" xmlns="http://www.w3.org/2000/svg">
<path d="M14.4676 2.7485V19.9985C14.4676 21.919 15.787 23 17.2338 23C18.5532 23 20 22.0915 20 19.9985V2.875C20 1.104 18.6806 0 17.2338 0C15.787 0 14.4676 1.219 14.4676 2.7485ZM7.2338 11.5V19.9985C7.2338 21.9305 8.57639 23 10 23C11.3194 23 12.7662 22.0915 12.7662 19.9985V11.6265C12.7662 9.8555 11.4468 8.7515 10 8.7515C8.55324 8.7515 7.2338 9.9705 7.2338 11.5ZM2.7662 17.5145C4.29398 17.5145 5.53241 18.745 5.53241 20.2515C5.53241 20.9804 5.24097 21.6795 4.72221 22.195C4.20344 22.7104 3.49985 23 2.7662 23C2.03256 23 1.32897 22.7104 0.810202 22.195C0.291439 21.6795 0 20.9804 0 20.2515C0 18.745 1.23843 17.5145 2.7662 17.5145Z" fill="black"/>
</svg>
