<svg width="25" height="23" viewBox="0 0 25 23" fill="none" xmlns="http://www.w3.org/2000/svg">
<path d="M22.6137 8.11295C20.3523 8.11295 19.4278 6.55345 20.5522 4.64062C21.2019 3.53191 20.8146 2.11861 19.6777 1.48506L17.5162 0.278885C16.5292 -0.293746 15.2549 0.047396 14.6677 1.0099L14.5302 1.24139C13.4058 3.15422 11.5567 3.15422 10.4198 1.24139L10.2824 1.0099C9.72014 0.047396 8.44578 -0.293746 7.45877 0.278885L5.29735 1.48506C4.16042 2.11861 3.77311 3.5441 4.42279 4.65281C5.55972 6.55345 4.63518 8.11295 2.37381 8.11295C1.07446 8.11295 0 9.14856 0 10.4278V12.5722C0 13.8393 1.06197 14.887 2.37381 14.887C4.63518 14.887 5.55972 16.4466 4.42279 18.3594C3.77311 19.4681 4.16042 20.8814 5.29735 21.5149L7.45877 22.7211C8.44578 23.2937 9.72014 22.9526 10.3073 21.9901L10.4448 21.7586C11.5692 19.8458 13.4183 19.8458 14.5552 21.7586L14.6927 21.9901C15.2799 22.9526 16.5542 23.2937 17.5412 22.7211L19.7027 21.5149C20.8396 20.8814 21.2269 19.4559 20.5772 18.3594C19.4403 16.4466 20.3648 14.887 22.6262 14.887C23.9255 14.887 25 13.8514 25 12.5722V10.4278C24.9875 9.16074 23.9255 8.11295 22.6137 8.11295ZM12.4938 15.4597C10.2574 15.4597 8.43328 13.6809 8.43328 11.5C8.43328 9.31913 10.2574 7.54032 12.4938 7.54032C14.7301 7.54032 16.5542 9.31913 16.5542 11.5C16.5542 13.6809 14.7301 15.4597 12.4938 15.4597Z" fill="rgba(255, 255, 255, 0.87)"/>
</svg>
